<svg version="1.1" id="Ebene_1" xmlns="http://www.w3.org/2000/svg" x="0" y="0" viewBox="0 0 916 916" xml:space="preserve"><style>.st2{fill:#222;stroke:#222;stroke-width:2}</style><g id="Schafe-vorm-Fenster-UG_Logo"><path d="M1 713.1c0-162.6 1-399.1 0-558 0-.8 914.3 0 914 0s0 326.8 0 715.8c0 27.8-17.9 44.7-44 44.7-150.9 0-542.8.4-682.4.4L1 713.1z" fill="#f9f9f9"/><path d="M1 521.9c0-162.6 1-207.8 0-366.8 0-.8 914.3 0 914 0s0 326.8 0 715.8c0 27.8-17.9 44.7-44 44.7H435.3l36.7-107 42-84.1 25.7-26.5 14.9-5 49.4 14.8 32.9 5.4 24.6-5.4 14.6-14.8 36.6-33.1 12.7-22.5 6.8-32.3-6.8-38.9-24.6-60.4-12.7-36.8v-39.1l24.7-51.2 6.8-46.5-6.8-25.4-24.7-28.8-35.5-47.5-15.6-31-17.7-11-45.9-6.2-90.2-5.9-47.8 5.9-47.1 20.4-47.8 21.9-43.5 5.8-36.5 47.6-8.1 21.7 8.1 20.6 24.2 22.8-45.8 65.1-50.3 49.8-46.8 23.9L86.2 512l-45.8 9.9H1z" fill="#ccd346"/><g id="Schaf" transform="matrix(-1 0 0 1 885.037 171.625)"><path id="Auge" class="st2" d="M368.2 186.6c0-2.3 20.7-22.9 29-28.2 8.4-5.2 14.4-6.7 29.8-6.7s51.7 7.1 54.6 14.2c2.9 7.1-18.5 21.6-28.7 25s-15.8 3.7-29.7 0-17.2-8-28.1-9.4-26.9 7.4-26.9 5.1z"/><path id="Path" class="st2" d="M884 359.3c-30.9-3.7-62.7-6.9-81.1-11.7-17.3-4.5-29.5-15.7-45.2-25.9-9.4-6.1-19.4-12.8-33.5-20.7-24.3-13.6-29.8-10.2-56.4-27.9-26.6-17.8-42-52-57.4-69.9s-25.2-25.8-29.7-30.6-8.3-11.8-4.9-14.6c12.1-10.2 23.8-8.9 30.9-16 7.1-7.1 19.3-28.5 9.4-41.5-4.3-5.7-21.4-21.3-27.2-24-7.5-3.5-18.3 0-25.3 0-12.4 0-17.7 6.3-24.5 24s8.5 42.5 0 46.5-25.5-31.3-25.5-49.8 0-18.5 7.3-27.8c4.9-6.2 10.9-10.9 18.1-14.4-13-5.1-23.9-9.5-32.6-13.1-13.1-5.4-28.4-17.8-58.3-23.8s-42.4-6.9-59.7-6.9c-17.3 0-36 5.6-46.1 6.9-10.2 1.3-8.7-3.5-24.9-3.5s-30.8 7-42.1 7-20.2 5-23.4 8.3c-4.6 4.6-2.1 8.3-12 25.2-9.2 15.9-23.4 37.4-35.6 49.8-12.3 12.4-19.3 15.3-24.5 23.1s-12.7 19.2-8.3 45.4 27.2 31.9 34.7 56.2-5.4 68.9-18.4 99.7c-13 30.9-23 45.3-24.2 59.5s5.7 31 26.3 27.6 69.1-34.7 71.1-32.2c1 1.2-8.5 11.2-21.1 21.5-12.9 10.5-28.9 21.9-33.7 27.1-9.5 10.2-9.6 32.2-14.8 32.2s-7.6-17.6-16.8-32.2-13.3-17.1-15.6 0 2.5 30.7 9.8 43.1c3.9 6.6 11.1 14.6 25.1 28.2 2.9 2.8 14.4 12.4 17.5 14.5 5.5 3.8 19.6 2.1 31.1.7 11.5-1.4 18.2-4.2 28.2-6.9s8.1-2.3 8.9-.9c.8 1.4 2.7 2.9-18.6 9.9-8.2 2.7-12 4.6-17.6 5.3-9 1.1-17.9 0-20.4 0-2 0 5.5 6 13.7 7.7 12.2 6 54.1-5.4 80.7-15.2 26.6-9.8 38-14.3 62.7-21.1 24.7-6.8 59.8-9.3 90.6-20.2 13.8-4.9 35.7-20.4 50.2-35.2 18-18.3 28.4-33.9 35-43.9s15.4-23.4 15.4-22.4c0 1.1-3 12.3-16.7 31-4.9 6.6-13.9 20.2-20.9 28.8-10.4 12.8-29.5 30.6-37.3 38.4-28 28.1-41 23.8-66.6 41-25.7 17.2-24 32-24 56.7s25.1 92.1 33.8 120.8c5.1 16.8 10.9 38.3 16 49.6h-7.3c-35.4-83.6-57.7-133.6-66.8-150.1-13.7-24.7-35.3-56.1-50.7-62.2-10.7-4.3-24 3.7-42.3 8.3-19.2 4.8-39.5 7.7-48.6 6.2-17.8-3.1-27.6-11.3-43.8-29.4-16.2-18.1-22.8-17.5-31.4-31.2s-13.2-32-14-57.5c-.9-25.5 6.7-49.7 15.9-67.7s21.8-37.7 24.9-54.9c1.5-8.6 1.9-26.4 0-35.1s-3.6-11.9-7.4-13.3c-3.8-1.4-22.3 1.3-47.7 0-17.9-.9-37.1-6.6-52.8-8.5s-45.4-3.3-61.9-10-22.8-14-20.6-24.4S12 207 38.4 197.4s33.5-19.2 50.9-29.7 28.5-14.9 56.3-16.4c27.7-1.5 21-3 21-5.9s1.5-9.1 8.1-20.3c6.5-11.2 19.4-25.3 28.1-36.7S217.3 71.6 223 62c10.1-17.1 17.8-37.9 31-45.9 20.6-12.5 26.1-7.2 54.3-11C336.4 1.3 420.9-2 443.1 3.2c14.8 3.5 29.1 8.4 42.9 14.8 14.5 5.8 19.6 12 39.3 19.8 7.4 2.9 25.3 12.5 30.6 14 15.8 4.4 27.5-7.2 39.8 3.2 16.5 13.9 25.8 27.7 35.9 42.1s10.1 28.9 10.4 30.8c.6 4.2 1.8 7.9-5.9 17.8s-30.7 23.1-29.5 26.9 6.4 5.8 16.2 17.3c8.2 9.6 12.1 18.7 19.2 31 7 12.2 22.3 27.9 28.9 35.1 4.4 4.8 27.5 19.4 31.5 21.9 8.4 5.2 22.9 11.8 33.8 16.9 4.9 2.3 7.6 5.4 15.3 9.6 29.7 16.3 27 24 51.5 32.2 16.3 5.5 43.9 10 80 14.3l1 8.4z"/></g><path id="Knick" class="st2" d="M188.4 914.7L2 715.4c103.3-1.3 159.6-1.3 169.1 0s15.2 10.1 17.4 26.4v172.9h-.1z"/><path d="M1 138.5c0-161.6 1 0 0-94.4C.8 22.5 18.4 0 48.2 0H160v40.7c-36.7 10.9-34.1 68.1 10 70.2 42.4-2.7 47.7-57 10-70.2V0h556s-.1 40.7 0 40.7c-33.9 6.5-36.8 67.2 9.9 70.2 45.9-2.5 44.9-63.7 10.1-70.2V0h115c26.8 0 44 19.7 44 44 0 395.4-.2 94.4 0 94.4.2.1-304.5.1-914 .1z" fill="#222"/></g></svg>